<svg xmlns="http://www.w3.org/2000/svg" width="1764" height="329.333" version="1.0" viewBox="0 0 1323 247"><path d="M399.5 7.7c-7.6.4-18.2 2.3-25.6 4.4-17.5 5.1-27.9 15.9-31.5 32.8-1.8 8.4-1.8 33.5 0 41.6 2.7 12.5 9.5 21.9 19.5 27 9.2 4.7 9.2 4.7.8 8.4-14.9 6.5-23.8 18-26.6 34.2-1.6 9.7-1.4 35.3.4 44.1 2.1 9.9 6.5 18.6 12.1 23.8 5.5 5 16.3 10.3 26 12.5 3.8.9 8.5 2 10.5 2.6 2.2.5 44.9.9 106.5.9h102.9l12-3c24.2-6 34.2-14.5 39.2-33.1 2-7.7 2.3-39.7.4-49.4-2.7-14.3-11.1-25-24.9-31.6-4.5-2.2-8-4.4-7.7-4.9s3.1-2.3 6.2-4.1c10.1-5.8 15.5-12.6 19.1-24.3 1.2-3.9 1.6-9.5 1.5-24.6 0-17.3-.3-20.2-2.2-25.4-4.5-12.6-10.6-19.6-21.6-24.7C601.4 7.8 587.9 7 488 7.2c-45.9.1-85.7.3-88.5.5m152.8 50.6c4.4 3.3 6.1 8.4 6 17.9-.1 7.3-2.2 12.9-5.6 15-5.9 3.8-8.9 3.9-64.2 3.6-51.7-.3-54.2-.4-58-2.3-6.1-3.1-7.9-7.2-8-18 0-8.6.2-9.4 2.9-12.9 5.1-6.8 2.9-6.6 66.2-6.3l57.1.2zm-3.8 86.7c.3.5 1.6 1 2.9 1s3.9 1.7 6.1 4l4 4.1V168c0 15.5-.7 17.4-7.6 21.5-3.3 1.9-5.2 2-62.4 2-57 0-59.1-.1-62.9-2-6.9-3.5-8.1-6.1-8.4-18.7-.2-6-.1-12.5.2-14.3.7-3.6 7-10.5 9.7-10.5 1 0 2.1-.5 2.4-1 .4-.6 20.8-1 58-1s57.6.4 58 1M725.5 7.7c-7.6.4-18.2 2.3-25.6 4.4-17.5 5.1-27.9 15.9-31.5 32.8-1.8 8.4-1.8 33.5 0 41.6 2.7 12.5 9.5 21.9 19.5 27 9.2 4.7 9.2 4.7.8 8.4-14.9 6.5-23.8 18-26.6 34.2-1.6 9.7-1.4 35.3.4 44.1 2.1 9.9 6.5 18.6 12.1 23.8 5.5 5 16.3 10.3 26 12.5 3.8.9 8.5 2 10.5 2.6 2.2.5 44.9.9 106.5.9h102.9l12-3c24.2-6 34.2-14.5 39.2-33.1 2-7.7 2.3-39.7.4-49.4-2.7-14.3-11.1-25-24.9-31.6-4.5-2.2-8-4.4-7.7-4.9s3.1-2.3 6.2-4.1c10.1-5.8 15.5-12.6 19.1-24.3 1.2-3.9 1.6-9.5 1.5-24.6 0-17.3-.3-20.2-2.2-25.4-4.5-12.6-10.6-19.6-21.6-24.7C927.4 7.8 913.9 7 814 7.2c-45.9.1-85.7.3-88.5.5m152.8 50.6c4.4 3.3 6.1 8.4 6 17.9-.1 7.3-2.2 12.9-5.6 15-5.9 3.8-8.9 3.9-64.2 3.6-51.7-.3-54.2-.4-58-2.3-6.1-3.1-7.9-7.2-8-18 0-8.6.2-9.4 2.9-12.9 5.1-6.8 2.9-6.6 66.2-6.3l57.1.2zm-3.8 86.7c.3.5 1.6 1 2.9 1s3.9 1.7 6.1 4l4 4.1V168c0 15.5-.7 17.4-7.6 21.5-3.3 1.9-5.2 2-62.4 2-57 0-59.1-.1-62.9-2-6.9-3.5-8.1-6.1-8.4-18.7-.2-6-.1-12.5.2-14.3.7-3.6 7-10.5 9.7-10.5 1 0 2.1-.5 2.4-1 .4-.6 20.8-1 58-1s57.6.4 58 1M1058 7.6c-9.4.9-19.9 2.9-25.9 5.1-19.9 7.2-36.3 23.9-41.4 42.3-3.7 13.8-3.9 16.3-3.5 74l.4 56.5 2.5 8.1c1.4 4.5 4.2 10.8 6.2 14.1 7.3 12 22 23.2 36.7 27.7 3 1 6.9 2.3 8.5 2.9 2.2.9 30.9 1.3 104.5 1.5 97.4.3 101.8.2 111.5-1.7 33.1-6.5 52.1-25.9 57.5-58.6 1.4-8.9.8-108.6-.7-116-3.2-14.8-8.3-24.5-18.3-34.6-9-9.2-18.1-14.2-32-18-13.2-3.6-21.1-3.8-112.5-3.7-49.5.1-91.6.3-93.5.4M1212.9 57c4.5 1.3 8.9 5.5 11.2 10.8 1.8 4.1 1.9 7.6 1.9 56.2 0 33.5-.4 52.1-1 52.5-.5.3-1 1.5-1 2.6 0 3.6-6.7 9.7-12.5 11.3-8.1 2.4-117.9 2.4-124.8 0-5.4-1.8-9.6-5.6-12.3-11.1-1.8-3.6-1.9-7.1-2.2-55.2-.2-34.7.1-51.8.8-52.5.5-.5 1-1.7 1-2.7 0-2.6 7.8-10.8 11.3-11.8 4.4-1.3 123.3-1.4 127.6-.1M7.2 105.7c.4 70.5.4 70.8 2.7 78.3 2.4 7.6 8 20.8 10 23.2.6.7 3.4 4.1 6.2 7.6C36.4 227.4 50.7 235 71.5 239c8.1 1.6 105.7.9 110-.8 1.7-.6 6-1.8 9.7-2.6 12.5-2.8 28.1-12 38.7-23 2.4-2.5 4.8-4.3 5.3-4 .4.3.8 7.5.8 16V240h83v-5.8c.3-34.5-.2-197.8-.6-198.2-.3-.3-19.2-.6-42-.8l-41.4-.3v110.2l-3.3 7.2c-2.6 5.6-4.9 8.6-10.2 13.4-3.7 3.5-7.5 6.3-8.4 6.3s-2.9.7-4.6 1.6c-5.9 3.1-13.3 3.7-49.5 4.1-43.6.5-46.2.2-57.2-8-3.4-2.5-8.8-12.9-8.8-16.9 0-1.5-.4-3-1-3.3-.6-.4-1-20.7-1-57.6V35H6.9z"/></svg>